<svg viewBox="0 0 95.481 95.481" height="95.481" width="95.481" data-background-color="#046380" preserveAspectRatio="xMidYMid meet" id="tight-bounds" xmlns="http://www.w3.org/2000/svg" xmlns:xlink="http://www.w3.org/1999/xlink"><g><svg viewBox="0 0 95.481 95.481" height="95.481" width="95.481"><g><svg viewBox="0 0 95.481 95.481" height="95.481" width="95.481"><g id="textblocktransform"><svg viewBox="0 0 95.481 95.481" height="95.481" width="95.481" id="textblock"><g><svg viewBox="0 0 95.481 95.481" height="95.481" width="95.481"><g><svg viewBox="0 0 95.481 95.481" height="95.481" width="95.481"><g><svg xmlns="http://www.w3.org/2000/svg" viewBox="1 1 22 22" x="0" y="0" height="95.481" width="95.481" class="icon-icon-0" data-fill-palette-color="accent" id="icon-0" fill="#000000"><g data-name="Layer 39" fill="#000000" data-fill-palette-color="accent"><circle cx="8" cy="6" r="1" fill="#000000" data-fill-palette-color="accent"/><circle cx="16" cy="6" r="1" fill="#000000" data-fill-palette-color="accent"/><path d="M8 15a1 1 0 0 1-0.55-1.83L9.2 12 7.45 10.83a1 1 0 1 1 1.1-1.66l3 2a1 1 0 0 1 0 1.66l-3 2A0.94 0.94 0 0 1 8 15Z" fill="#000000" data-fill-palette-color="accent"/><path d="M15 23H9a1 1 0 0 1-1-1V18h2v3h4V18h2v4A1 1 0 0 1 15 23Z" fill="#000000" data-fill-palette-color="accent"/><path d="M22 19H2a1 1 0 0 1-1-1V2A1 1 0 0 1 2 1H22a1 1 0 0 1 1 1V18A1 1 0 0 1 22 19ZM3 17H21V3H3Z" fill="#000000" data-fill-palette-color="accent"/><path d="M18 23H6a1 1 0 0 1 0-2H18a1 1 0 0 1 0 2Z" fill="#000000" data-fill-palette-color="accent"/></g></svg></g></svg></g></svg></g></svg></g></svg></g><g/></svg></g><defs/></svg>